<?xml version="1.0" encoding="UTF-8"?>
<svg xmlns="http://www.w3.org/2000/svg" xmlns:xlink="http://www.w3.org/1999/xlink" width="94px" height="26px" viewBox="0 0 94 26" version="1.1">
<g id="surface1">
<path style=" stroke:none;fill-rule:nonzero;fill:rgb(0%,0%,0%);fill-opacity:1;" d="M 2.40625 0.449219 C 1.558594 0.804688 0.5625 1.828125 0.332031 2.585938 C 0.199219 3.003906 0.164062 6.222656 0.199219 13.417969 L 0.25 23.648438 L 0.746094 24.3125 C 1.34375 25.101562 2.109375 25.628906 2.988281 25.84375 C 3.402344 25.953125 18.453125 25.984375 47.414062 25.96875 L 91.226562 25.921875 L 92.042969 25.457031 C 92.539062 25.164062 93.039062 24.699219 93.351562 24.234375 L 93.851562 23.476562 L 93.902344 13.277344 C 93.949219 3.125 93.933594 3.09375 93.585938 2.320312 C 93.171875 1.421875 92.15625 0.542969 91.292969 0.308594 C 90.914062 0.214844 75.3125 0.15625 46.882812 0.15625 C 4.863281 0.15625 3.035156 0.171875 2.40625 0.449219 Z M 17.328125 5.617188 C 17.90625 6.175781 18.121094 8.820312 17.574219 8.820312 C 17.492188 8.820312 17.425781 8.355469 17.425781 7.769531 C 17.425781 6.066406 16.863281 5.523438 15.484375 5.867188 C 14.207031 6.191406 14.039062 6.4375 13.941406 8.0625 C 13.890625 9.007812 13.792969 9.519531 13.660156 9.5625 C 13.34375 9.65625 13.359375 6.933594 13.691406 6.359375 C 14.222656 5.386719 16.5625 4.90625 17.328125 5.617188 Z M 19.203125 6.46875 C 19.699219 6.761719 19.964844 8.355469 19.5 8.355469 C 19.316406 8.355469 19.25 8.1875 19.25 7.769531 C 19.25 7.105469 19.019531 6.808594 18.472656 6.808594 C 18.089844 6.808594 17.972656 6.65625 18.207031 6.453125 C 18.355469 6.3125 18.953125 6.3125 19.203125 6.46875 Z M 58.203125 6.59375 C 58.234375 6.671875 58.085938 6.808594 57.886719 6.886719 C 57.355469 7.105469 57.257812 7.894531 57.738281 7.894531 C 57.9375 7.894531 58.085938 8 58.085938 8.125 C 58.085938 8.25 57.9375 8.355469 57.753906 8.355469 C 57.457031 8.355469 57.421875 8.464844 57.421875 9.59375 C 57.421875 10.585938 57.371094 10.832031 57.171875 10.832031 C 56.972656 10.832031 56.925781 10.585938 56.925781 9.59375 C 56.925781 8.605469 56.875 8.355469 56.675781 8.355469 C 56.542969 8.355469 56.425781 8.25 56.425781 8.125 C 56.425781 8 56.542969 7.894531 56.675781 7.894531 C 56.839844 7.894531 56.925781 7.738281 56.925781 7.460938 C 56.925781 7.210938 57.023438 6.917969 57.140625 6.777344 C 57.472656 6.375 58.085938 6.269531 58.203125 6.59375 Z M 44.3125 8.667969 C 44.3125 10.492188 44.277344 10.832031 44.0625 10.832031 C 43.847656 10.832031 43.8125 10.492188 43.8125 8.667969 C 43.8125 6.839844 43.847656 6.5 44.0625 6.5 C 44.277344 6.5 44.3125 6.839844 44.3125 8.667969 Z M 54.433594 8.667969 C 54.433594 10.492188 54.402344 10.832031 54.1875 10.832031 C 54.054688 10.832031 53.9375 10.769531 53.9375 10.695312 C 53.9375 10.617188 53.703125 10.648438 53.421875 10.785156 C 53.023438 10.972656 52.824219 10.988281 52.460938 10.832031 C 51.316406 10.398438 51.332031 8.433594 52.492188 7.921875 C 52.875 7.753906 53.023438 7.753906 53.4375 7.953125 L 53.9375 8.171875 L 53.9375 7.335938 C 53.9375 6.703125 54.003906 6.5 54.1875 6.5 C 54.402344 6.5 54.433594 6.839844 54.433594 8.667969 Z M 30.585938 6.824219 C 31.433594 7.042969 31.863281 7.707031 31.863281 8.789062 C 31.863281 9.503906 31.796875 9.671875 31.300781 10.167969 C 30.785156 10.695312 30.667969 10.742188 29.640625 10.800781 L 28.546875 10.863281 L 28.546875 6.65625 L 29.257812 6.65625 C 29.640625 6.65625 30.238281 6.730469 30.585938 6.824219 Z M 16.929688 7.011719 C 16.929688 7.117188 16.777344 7.289062 16.597656 7.382812 C 16.378906 7.519531 16.246094 7.832031 16.164062 8.355469 C 16.03125 9.347656 15.765625 9.363281 15.765625 8.371094 C 15.765625 7.847656 15.867188 7.507812 16.113281 7.210938 C 16.464844 6.792969 16.929688 6.671875 16.929688 7.011719 Z M 34.984375 8.234375 C 35.480469 8.683594 35.5 9.84375 35.019531 10.414062 C 34.304688 11.265625 32.894531 11.019531 32.527344 9.980469 C 31.964844 8.371094 33.707031 7.132812 34.984375 8.234375 Z M 42.550781 8.0625 C 42.949219 8.355469 42.984375 8.464844 42.984375 9.609375 C 42.984375 10.601562 42.933594 10.832031 42.734375 10.832031 C 42.535156 10.832031 42.484375 10.617188 42.484375 9.765625 C 42.484375 8.992188 42.417969 8.621094 42.21875 8.449219 C 41.886719 8.125 41.722656 8.140625 41.324219 8.511719 C 41.058594 8.757812 40.992188 9.023438 40.992188 9.828125 C 40.992188 10.617188 40.941406 10.832031 40.742188 10.832031 C 40.542969 10.832031 40.496094 10.570312 40.496094 9.363281 C 40.496094 8.15625 40.542969 7.894531 40.742188 7.894531 C 40.875 7.894531 40.992188 7.953125 40.992188 8.03125 C 40.992188 8.125 41.191406 8.078125 41.457031 7.953125 C 42.039062 7.675781 42.019531 7.675781 42.550781 8.0625 Z M 47.117188 7.910156 C 48.859375 8.480469 48.09375 11.28125 46.285156 10.910156 C 44.824219 10.617188 44.742188 8.109375 46.1875 7.847656 C 46.386719 7.816406 46.550781 7.769531 46.570312 7.753906 C 46.585938 7.753906 46.816406 7.816406 47.117188 7.910156 Z M 50.335938 7.910156 C 50.882812 8.1875 50.949219 8.339844 50.949219 9.625 C 50.949219 10.601562 50.898438 10.832031 50.699219 10.832031 C 50.566406 10.832031 50.453125 10.769531 50.453125 10.679688 C 50.453125 10.601562 50.234375 10.648438 49.96875 10.785156 C 49.523438 11.035156 49.472656 11.035156 49.058594 10.785156 C 48.726562 10.585938 48.625 10.382812 48.625 9.980469 C 48.625 9.394531 48.84375 9.222656 49.839844 9.054688 C 50.484375 8.929688 50.617188 8.683594 50.203125 8.355469 C 49.96875 8.171875 49.722656 8.1875 49.089844 8.433594 C 48.875 8.511719 48.792969 8.464844 48.792969 8.296875 C 48.792969 8.09375 48.976562 8 49.921875 7.753906 C 49.953125 7.738281 50.136719 7.816406 50.335938 7.910156 Z M 63.046875 8.3125 C 63.363281 8.652344 63.414062 8.835938 63.347656 9.488281 C 63.246094 10.476562 62.816406 10.910156 61.886719 10.910156 C 61.339844 10.910156 61.125 10.816406 60.808594 10.476562 C 60.09375 9.703125 60.375 8.339844 61.324219 7.953125 C 61.96875 7.675781 62.550781 7.800781 63.046875 8.3125 Z M 66.117188 8.0625 C 66.351562 8.234375 66.550781 8.3125 66.550781 8.234375 C 66.550781 7.96875 67.363281 7.738281 67.777344 7.878906 C 68.292969 8.0625 68.375 8.328125 68.375 9.6875 C 68.375 10.585938 68.324219 10.832031 68.125 10.832031 C 67.945312 10.832031 67.878906 10.570312 67.84375 9.65625 C 67.8125 8.742188 67.726562 8.433594 67.511719 8.296875 C 67.296875 8.171875 67.148438 8.203125 66.898438 8.417969 C 66.617188 8.667969 66.550781 8.898438 66.550781 9.78125 C 66.550781 10.617188 66.5 10.832031 66.300781 10.832031 C 66.101562 10.832031 66.050781 10.617188 66.050781 9.84375 C 66.050781 8.714844 65.703125 8.09375 65.171875 8.296875 C 64.757812 8.433594 64.558594 8.992188 64.558594 9.996094 C 64.558594 10.632812 64.492188 10.832031 64.308594 10.832031 C 64.109375 10.832031 64.0625 10.570312 64.0625 9.363281 C 64.0625 8.15625 64.109375 7.894531 64.308594 7.894531 C 64.441406 7.894531 64.558594 7.953125 64.558594 8.03125 C 64.558594 8.125 64.757812 8.078125 65.023438 7.953125 C 65.605469 7.675781 65.585938 7.675781 66.117188 8.0625 Z M 36.363281 8.355469 C 36.429688 8.574219 36.578125 9.054688 36.695312 9.441406 L 36.894531 10.136719 L 37.257812 9.054688 C 37.738281 7.566406 38.039062 7.550781 38.417969 8.992188 C 38.734375 10.183594 38.835938 10.167969 39.167969 8.851562 C 39.347656 8.078125 39.582031 7.753906 39.78125 7.953125 C 39.832031 8 39.714844 8.636719 39.5 9.378906 C 38.96875 11.234375 38.550781 11.3125 38.15625 9.625 C 38.039062 9.191406 37.890625 8.820312 37.804688 8.820312 C 37.738281 8.820312 37.671875 8.898438 37.671875 8.992188 C 37.671875 9.503906 37.125 10.832031 36.910156 10.832031 C 36.644531 10.832031 36.527344 10.601562 36.046875 9.007812 C 35.746094 8 35.730469 7.878906 35.964844 7.921875 C 36.113281 7.953125 36.296875 8.140625 36.363281 8.355469 Z M 59.082031 8.078125 C 59.082031 8.21875 59.132812 8.21875 59.28125 8.078125 C 59.5625 7.816406 60.242188 7.847656 60.242188 8.125 C 60.242188 8.265625 60.09375 8.355469 59.84375 8.355469 C 59.363281 8.355469 59.082031 8.976562 59.082031 10.074219 C 59.082031 10.648438 59.015625 10.832031 58.832031 10.832031 C 58.632812 10.832031 58.585938 10.570312 58.585938 9.363281 C 58.585938 8.15625 58.632812 7.894531 58.832031 7.894531 C 58.964844 7.894531 59.082031 7.96875 59.082031 8.078125 Z M 22.953125 8.804688 L 24.0625 9.191406 L 24.0625 20.351562 L 21.773438 21.15625 L 16.414062 20.105469 C 13.460938 19.515625 10.871094 19.003906 10.671875 18.957031 L 10.289062 18.882812 L 10.289062 10.679688 L 10.738281 10.570312 C 11.667969 10.355469 21.65625 8.402344 21.742188 8.417969 C 21.789062 8.417969 22.339844 8.605469 22.953125 8.804688 Z M 47.296875 16.421875 L 47.296875 19.671875 L 46.933594 19.625 C 46.71875 19.59375 46.570312 19.484375 46.601562 19.375 C 46.652344 19.144531 46.652344 19.128906 45.886719 19.5 C 44.445312 20.179688 43.148438 19.222656 43.148438 17.488281 C 43.148438 16.109375 43.996094 15.167969 45.222656 15.167969 C 45.65625 15.167969 46.019531 15.257812 46.136719 15.398438 C 46.484375 15.800781 46.550781 15.660156 46.503906 14.625 C 46.4375 13.417969 46.519531 13.15625 46.96875 13.15625 C 47.28125 13.15625 47.296875 13.246094 47.296875 16.421875 Z M 37.507812 13.542969 C 37.789062 13.851562 37.589844 14.238281 37.175781 14.238281 C 36.992188 14.238281 36.792969 14.128906 36.742188 14.007812 C 36.644531 13.773438 36.925781 13.308594 37.175781 13.308594 C 37.242188 13.308594 37.390625 13.417969 37.507812 13.542969 Z M 67.695312 13.402344 C 68.125 13.496094 68.210938 13.574219 68.210938 13.960938 C 68.210938 14.347656 68.175781 14.378906 67.894531 14.238281 C 67.363281 13.976562 66.46875 14.050781 66.152344 14.378906 C 65.671875 14.871094 65.871094 15.476562 66.714844 16.035156 C 68.191406 17.023438 68.542969 17.410156 68.542969 18.089844 C 68.542969 18.507812 68.425781 18.835938 68.175781 19.113281 C 67.761719 19.546875 66.714844 19.839844 66.050781 19.714844 C 65.105469 19.515625 65.054688 19.484375 65.054688 19.019531 C 65.054688 18.570312 65.054688 18.570312 65.554688 18.804688 C 66.550781 19.285156 67.710938 18.988281 67.710938 18.246094 C 67.710938 17.71875 67.429688 17.394531 66.550781 16.867188 C 65.4375 16.203125 65.054688 15.722656 65.054688 15.011719 C 65.054688 13.851562 66.234375 13.140625 67.695312 13.402344 Z M 29.640625 16.019531 C 30.023438 17.378906 30.371094 18.386719 30.421875 18.261719 C 30.46875 18.136719 30.753906 17.226562 31.035156 16.25 C 31.863281 13.402344 31.847656 13.433594 32.246094 13.496094 C 32.5625 13.542969 32.695312 13.835938 33.273438 15.894531 C 33.640625 17.195312 33.972656 18.261719 34.023438 18.261719 C 34.070312 18.261719 34.402344 17.179688 34.753906 15.863281 C 35.347656 13.605469 35.398438 13.464844 35.78125 13.464844 C 35.996094 13.464844 36.179688 13.511719 36.179688 13.558594 C 36.179688 13.617188 35.796875 15.011719 35.316406 16.652344 C 34.46875 19.609375 34.453125 19.65625 34.023438 19.65625 C 33.589844 19.65625 33.558594 19.59375 32.941406 17.441406 C 32.59375 16.234375 32.28125 15.183594 32.230469 15.105469 C 32.179688 15.027344 31.832031 16.003906 31.464844 17.269531 C 30.820312 19.453125 30.769531 19.578125 30.355469 19.625 C 29.921875 19.671875 29.90625 19.625 29.058594 16.777344 C 28.578125 15.183594 28.148438 13.789062 28.097656 13.664062 C 28.03125 13.496094 28.113281 13.449219 28.460938 13.496094 C 28.925781 13.542969 28.960938 13.605469 29.640625 16.019531 Z M 70.367188 14.53125 C 70.367188 15.105469 70.402344 15.152344 70.898438 15.199219 C 71.679688 15.257812 71.746094 15.738281 70.996094 15.816406 L 70.449219 15.863281 L 70.402344 17.101562 C 70.335938 18.789062 70.417969 19.035156 71.03125 19.035156 C 71.414062 19.035156 71.527344 19.113281 71.527344 19.328125 C 71.527344 19.902344 70.050781 19.808594 69.769531 19.222656 C 69.703125 19.082031 69.636719 18.261719 69.605469 17.410156 C 69.554688 16.003906 69.519531 15.863281 69.207031 15.816406 C 68.707031 15.738281 68.757812 15.167969 69.273438 15.167969 C 69.605469 15.167969 69.636719 15.105469 69.570312 14.75 C 69.519531 14.46875 69.585938 14.285156 69.785156 14.128906 C 70.269531 13.820312 70.367188 13.882812 70.367188 14.53125 Z M 37.507812 17.410156 C 37.507812 19.546875 37.492188 19.65625 37.175781 19.65625 C 36.859375 19.65625 36.84375 19.546875 36.84375 17.410156 C 36.84375 15.273438 36.859375 15.167969 37.175781 15.167969 C 37.492188 15.167969 37.507812 15.273438 37.507812 17.410156 Z M 39.332031 15.492188 L 39.332031 15.800781 L 39.765625 15.492188 C 40.230469 15.152344 41.140625 15.058594 41.65625 15.320312 C 42.136719 15.554688 42.320312 16.328125 42.320312 18.0625 C 42.320312 19.65625 42.320312 19.671875 41.953125 19.625 C 41.589844 19.578125 41.574219 19.5 41.488281 17.828125 C 41.40625 15.957031 41.324219 15.785156 40.460938 15.785156 C 40.179688 15.785156 39.898438 15.925781 39.679688 16.1875 C 39.382812 16.542969 39.332031 16.824219 39.332031 18.136719 C 39.332031 19.640625 39.332031 19.671875 38.96875 19.625 C 38.601562 19.578125 38.585938 19.515625 38.535156 17.582031 C 38.519531 16.464844 38.535156 15.476562 38.570312 15.367188 C 38.71875 15.027344 39.332031 15.121094 39.332031 15.492188 Z M 51.695312 15.507812 C 52.941406 16.421875 52.875 18.507812 51.582031 19.390625 C 50.964844 19.808594 49.773438 19.808594 49.15625 19.390625 C 47.78125 18.464844 47.847656 16.125 49.273438 15.398438 C 49.953125 15.058594 51.148438 15.105469 51.695312 15.507812 Z M 53.769531 15.816406 C 53.886719 16.1875 54.085938 16.898438 54.234375 17.410156 C 54.367188 17.921875 54.535156 18.386719 54.585938 18.449219 C 54.632812 18.507812 54.898438 17.828125 55.164062 16.914062 C 55.878906 14.53125 56.175781 14.546875 56.90625 17.039062 C 57.171875 17.921875 57.421875 18.539062 57.488281 18.417969 C 57.539062 18.292969 57.753906 17.519531 57.96875 16.714844 C 58.300781 15.460938 58.402344 15.242188 58.71875 15.199219 C 58.914062 15.167969 59.082031 15.199219 59.082031 15.273438 C 59.082031 15.335938 58.800781 16.34375 58.433594 17.488281 C 57.855469 19.421875 57.769531 19.578125 57.40625 19.578125 C 57.039062 19.578125 56.957031 19.4375 56.527344 17.96875 C 55.976562 16.171875 56.027344 16.15625 55.347656 18.292969 C 54.964844 19.46875 54.867188 19.65625 54.550781 19.65625 C 54.21875 19.65625 54.121094 19.421875 53.503906 17.488281 C 53.140625 16.296875 52.859375 15.289062 52.90625 15.242188 C 52.957031 15.199219 53.125 15.167969 53.289062 15.167969 C 53.503906 15.167969 53.65625 15.351562 53.769531 15.816406 Z M 61.871094 15.570312 C 61.917969 15.847656 61.835938 15.878906 61.125 15.878906 C 60.34375 15.863281 60.328125 15.878906 60.328125 16.3125 C 60.328125 16.699219 60.460938 16.839844 61.074219 17.179688 C 62.070312 17.71875 62.367188 18.277344 62.019531 18.972656 C 61.523438 19.917969 59.5625 20.042969 59.445312 19.128906 C 59.398438 18.742188 59.429688 18.726562 59.730469 18.867188 C 59.910156 18.957031 60.308594 19.035156 60.640625 19.035156 C 61.074219 19.035156 61.238281 18.957031 61.324219 18.726562 C 61.457031 18.324219 61.191406 18.015625 60.394531 17.628906 C 59.332031 17.132812 59.097656 16.234375 59.828125 15.539062 C 60.175781 15.214844 60.375 15.152344 61.039062 15.199219 C 61.6875 15.230469 61.835938 15.304688 61.871094 15.570312 Z M 75.644531 15.554688 C 76.671875 16.359375 76.691406 18.261719 75.710938 19.191406 C 74.730469 20.089844 72.875 19.808594 72.308594 18.679688 C 71.761719 17.613281 72.042969 16.15625 72.941406 15.507812 C 73.621094 15.011719 74.980469 15.027344 75.644531 15.554688 Z M 77.867188 15.507812 C 77.800781 15.863281 77.917969 15.863281 78.332031 15.476562 C 78.515625 15.304688 78.847656 15.167969 79.082031 15.167969 C 79.410156 15.167969 79.496094 15.242188 79.496094 15.539062 C 79.496094 15.847656 79.410156 15.910156 79.0625 15.894531 C 78.285156 15.832031 77.933594 16.496094 77.886719 18.152344 C 77.851562 19.453125 77.820312 19.578125 77.503906 19.625 C 77.1875 19.671875 77.171875 19.609375 77.171875 17.410156 C 77.171875 15.152344 77.171875 15.152344 77.554688 15.199219 C 77.800781 15.230469 77.902344 15.335938 77.867188 15.507812 Z M 83.128906 15.492188 C 83.59375 15.894531 83.808594 16.421875 83.808594 17.117188 L 83.808594 17.644531 L 82.21875 17.644531 C 80.824219 17.644531 80.640625 17.671875 80.722656 17.890625 C 80.773438 18.03125 80.824219 18.199219 80.824219 18.277344 C 80.824219 18.355469 80.972656 18.554688 81.15625 18.726562 C 81.519531 19.066406 82.613281 19.144531 83.164062 18.867188 C 83.460938 18.726562 83.496094 18.742188 83.445312 19.066406 C 83.410156 19.328125 83.210938 19.46875 82.730469 19.625 C 81.867188 19.886719 81.003906 19.671875 80.425781 19.019531 C 80.058594 18.617188 79.992188 18.402344 79.992188 17.519531 C 79.992188 15.941406 80.671875 15.183594 82.085938 15.167969 C 82.53125 15.167969 82.863281 15.273438 83.128906 15.492188 Z M 83.128906 15.492188 "/>
<path style=" stroke:none;fill-rule:nonzero;fill:rgb(0%,0%,0%);fill-opacity:1;" d="M 52.542969 8.449219 C 51.695312 9.238281 52.261719 10.742188 53.289062 10.445312 C 53.953125 10.246094 54.152344 9.023438 53.605469 8.511719 C 53.207031 8.140625 52.890625 8.125 52.542969 8.449219 Z M 52.542969 8.449219 "/>
<path style=" stroke:none;fill-rule:nonzero;fill:rgb(0%,0%,0%);fill-opacity:1;" d="M 29.042969 8.742188 L 29.042969 10.367188 L 29.691406 10.367188 C 30.636719 10.367188 31.199219 9.875 31.316406 8.960938 C 31.367188 8.542969 31.316406 8.109375 31.199219 7.910156 C 30.984375 7.519531 30.105469 7.117188 29.457031 7.117188 L 29.042969 7.117188 Z M 29.042969 8.742188 "/>
<path style=" stroke:none;fill-rule:nonzero;fill:rgb(0%,0%,0%);fill-opacity:1;" d="M 33.390625 8.449219 C 33.109375 8.636719 33.027344 8.835938 33.027344 9.363281 C 33.027344 9.890625 33.109375 10.089844 33.390625 10.277344 C 33.890625 10.601562 34.121094 10.585938 34.519531 10.214844 C 35.152344 9.625 34.753906 8.203125 33.972656 8.203125 C 33.855469 8.203125 33.589844 8.3125 33.390625 8.449219 Z M 33.390625 8.449219 "/>
<path style=" stroke:none;fill-rule:nonzero;fill:rgb(0%,0%,0%);fill-opacity:1;" d="M 45.972656 8.511719 C 45.308594 9.132812 45.738281 10.523438 46.601562 10.523438 C 47.449219 10.523438 47.828125 8.914062 47.097656 8.449219 C 46.601562 8.125 46.371094 8.140625 45.972656 8.511719 Z M 45.972656 8.511719 "/>
<path style=" stroke:none;fill-rule:nonzero;fill:rgb(0%,0%,0%);fill-opacity:1;" d="M 49.324219 9.625 C 48.742188 10.167969 49.523438 10.785156 50.136719 10.277344 C 50.617188 9.875 50.550781 9.441406 49.988281 9.441406 C 49.738281 9.441406 49.441406 9.519531 49.324219 9.625 Z M 49.324219 9.625 "/>
<path style=" stroke:none;fill-rule:nonzero;fill:rgb(0%,0%,0%);fill-opacity:1;" d="M 61.324219 8.589844 C 60.460938 9.378906 61.15625 10.769531 62.25 10.445312 C 62.949219 10.230469 63.082031 8.699219 62.402344 8.355469 C 61.9375 8.125 61.769531 8.15625 61.324219 8.589844 Z M 61.324219 8.589844 "/>
<path style=" stroke:none;fill-rule:nonzero;fill:rgb(0%,0%,0%);fill-opacity:1;" d="M 16.84375 11.980469 L 15.683594 12.148438 L 15.632812 13.277344 L 15.582031 14.394531 L 18.753906 14.394531 L 18.753906 13.078125 C 18.753906 11.578125 18.917969 11.667969 16.84375 11.980469 Z M 16.84375 11.980469 "/>
<path style=" stroke:none;fill-rule:nonzero;fill:rgb(0%,0%,0%);fill-opacity:1;" d="M 14.523438 12.304688 C 14.4375 12.335938 14.007812 12.394531 13.574219 12.457031 L 12.777344 12.550781 L 12.777344 14.394531 L 15.269531 14.394531 L 15.269531 13.308594 C 15.269531 12.210938 15.183594 12.085938 14.523438 12.304688 Z M 14.523438 12.304688 "/>
<path style=" stroke:none;fill-rule:nonzero;fill:rgb(0%,0%,0%);fill-opacity:1;" d="M 12.777344 15.769531 L 12.777344 16.839844 L 13.742188 16.929688 C 14.257812 16.992188 14.820312 17.070312 14.984375 17.117188 C 15.234375 17.195312 15.269531 17.070312 15.269531 15.957031 L 15.269531 14.703125 L 12.777344 14.703125 Z M 12.777344 15.769531 "/>
<path style=" stroke:none;fill-rule:nonzero;fill:rgb(0%,0%,0%);fill-opacity:1;" d="M 15.714844 14.8125 C 15.648438 14.855469 15.601562 15.414062 15.601562 16.035156 L 15.601562 17.148438 L 16.8125 17.332031 C 17.460938 17.425781 18.171875 17.535156 18.386719 17.582031 C 18.753906 17.644531 18.753906 17.628906 18.753906 16.171875 L 18.753906 14.703125 L 17.292969 14.703125 C 16.480469 14.703125 15.765625 14.75 15.714844 14.8125 Z M 15.714844 14.8125 "/>
<path style=" stroke:none;fill-rule:nonzero;fill:rgb(0%,0%,0%);fill-opacity:1;" d="M 44.394531 16.171875 C 44.0625 16.464844 43.980469 16.699219 43.980469 17.332031 C 43.980469 18.121094 44.179688 18.695312 44.542969 18.910156 C 44.925781 19.160156 45.789062 19.035156 46.136719 18.695312 C 46.617188 18.214844 46.617188 16.542969 46.136719 16.09375 C 45.671875 15.660156 44.890625 15.691406 44.394531 16.171875 Z M 44.394531 16.171875 "/>
<path style=" stroke:none;fill-rule:nonzero;fill:rgb(0%,0%,0%);fill-opacity:1;" d="M 49.65625 15.894531 C 49.289062 16.035156 48.957031 16.824219 48.957031 17.566406 C 48.957031 18.507812 49.488281 19.035156 50.433594 19.035156 C 51.347656 19.035156 51.78125 18.507812 51.78125 17.378906 C 51.78125 16.699219 51.695312 16.480469 51.363281 16.171875 C 50.984375 15.800781 50.21875 15.675781 49.65625 15.894531 Z M 49.65625 15.894531 "/>
<path style=" stroke:none;fill-rule:nonzero;fill:rgb(0%,0%,0%);fill-opacity:1;" d="M 73.273438 16.171875 C 72.941406 16.480469 72.855469 16.699219 72.855469 17.378906 C 72.855469 18.539062 73.273438 19.035156 74.25 19.035156 C 74.730469 19.035156 75.046875 18.941406 75.230469 18.757812 C 75.828125 18.152344 75.777344 16.652344 75.164062 16.078125 C 74.699219 15.644531 73.769531 15.691406 73.273438 16.171875 Z M 73.273438 16.171875 "/>
<path style=" stroke:none;fill-rule:nonzero;fill:rgb(0%,0%,0%);fill-opacity:1;" d="M 81.15625 16.125 C 80.972656 16.3125 80.824219 16.589844 80.824219 16.746094 C 80.824219 16.992188 80.972656 17.023438 81.902344 17.023438 C 82.929688 17.023438 82.980469 17.007812 82.980469 16.667969 C 82.980469 15.847656 81.785156 15.492188 81.15625 16.125 Z M 81.15625 16.125 "/>
</g>
</svg>
